<?xml version="1.0" encoding="utf-8"?>
<!-- Generator: Adobe Illustrator 22.1.0, SVG Export Plug-In . SVG Version: 6.00 Build 0)  -->
<svg version="1.1" id="Layer_1" xmlns="http://www.w3.org/2000/svg" xmlns:xlink="http://www.w3.org/1999/xlink" x="0px" y="0px"
	 viewBox="0 0 512 512" style="enable-background:new 0 0 512 512;" xml:space="preserve">
<style type="text/css">
	.st0{fill:#87C091;}
	.st1{fill:#74AD7C;}
	.st2{fill:#3D7547;}
	.st3{fill:#CC9999;}
</style>
<g>
	<path class="st0" d="M90.7,421.3C236.7,567.2,576.4,305.9,501.3,10.7C206.1-64.4-55.2,275.3,90.7,421.3z"/>
	<path class="st1" d="M90.7,375c-23.1-23.1-36-51.1-40.2-81.5c-6,48.1,5.7,93.3,40.2,127.8c135.6,135.6,438.6-80.5,420.5-348.6
		C494.6,318.5,218.5,502.7,90.7,375z"/>
	<path class="st2" d="M399.2,206.7l-64-13.5l62.7-62.7c4.5-4.5,4.5-11.8,0-16.4s-11.8-4.5-16.4,0l-62.7,62.7l-13.5-64
		c-1.3-6.3-7.4-10.3-13.7-8.9c-6.3,1.3-10.3,7.5-8.9,13.7l16.6,78.8L240.7,255l-13.5-64c-1.3-6.3-7.4-10.3-13.7-8.9
		c-6.3,1.3-10.3,7.5-8.9,13.7l16.6,78.8l-58.6,58.6l-13.5-64c-1.3-6.3-7.5-10.3-13.7-8.9c-6.3,1.3-10.3,7.5-8.9,13.7l16.6,78.8
		L3.4,492.2c-4.5,4.5-4.5,11.8,0,16.4c2.3,2.3,5.2,3.4,8.2,3.4s5.9-1.1,8.2-3.4L159.4,369l78.8,16.6c0.8,0.2,1.6,0.3,2.4,0.3
		c5.4,0,10.2-3.7,11.3-9.2c1.3-6.3-2.7-12.4-8.9-13.7l-64-13.5l58.6-58.6l78.8,16.6c0.8,0.2,1.6,0.3,2.4,0.3
		c5.4,0,10.2-3.7,11.3-9.2c1.3-6.3-2.7-12.4-8.9-13.7l-64-13.5l58.6-58.6l78.8,16.6c0.8,0.2,1.6,0.3,2.4,0.3
		c5.4,0,10.2-3.7,11.3-9.2C409.4,214.1,405.4,208,399.2,206.7z"/>
</g>
<path class="st3" d="M87.4,7.8c-12.1-2.9-24.1,4.7-27.8,16.7l-1.5,4.7l-4.6-1.6c-11.8-4.1-25.1,1-29.9,12.5
	c-5.5,13.2,1.5,28.4,14.7,33l45.6,15.8c2.9,1,6.1-0.6,7-3.5l14.3-46.1C109.4,25.8,101.3,11.2,87.4,7.8L87.4,7.8z"/>
<path class="st3" d="M33.4,117.9c-5.6,4.6-6.2,12.8-2,18.7l1.7,2.3l-2.4,1.6c-6,4-8.3,12-4.7,18.2c4.2,7.2,13.7,9.2,20.4,4.7
	l23.3-15.6c1.5-1,1.9-3,0.8-4.5l-16.3-22.7C49.4,114,39.8,112.6,33.4,117.9L33.4,117.9z"/>
<path class="st3" d="M182.1,23.5c-5.6-4.6-13.8-3.5-18.7,1.8l-1.9,2.1l-2-2c-5.2-5.1-13.4-5.8-18.8-0.9c-6.2,5.5-6.3,15.2-0.5,20.9
	L160,65.1c1.3,1.3,3.3,1.2,4.6-0.1l19-20.6C189.1,38.5,188.6,28.8,182.1,23.5L182.1,23.5z"/>
</svg>
