<?xml version="1.0" encoding="utf-8"?>
<!-- Generator: Adobe Illustrator 22.1.0, SVG Export Plug-In . SVG Version: 6.00 Build 0)  -->
<svg version="1.1" id="icons" xmlns="http://www.w3.org/2000/svg" xmlns:xlink="http://www.w3.org/1999/xlink" x="0px" y="0px"
	 viewBox="0 0 1930 512" style="enable-background:new 0 0 1930 512;" xml:space="preserve">
<style type="text/css">
	.st0{fill:#DDECE0;}
</style>
<g>
	<g>
		<path class="st0" d="M434.7,433l-10.3,62.7l-53-170.4l66.7,83.9l0.6,0.1L434.7,433z"/>
	</g>
	<g>
		<path class="st0" d="M560.8,356.5L420.5,519.4l3.9-23.7l10.3-62.7l0.6,0.1L560.8,356.5z"/>
	</g>
	<g>
		<g>
			<path class="st0" d="M417.8,535.7c-4.4-0.7-7.3-4.8-6.6-9.2l31.8-193.1c0.7-4.4,4.8-7.3,9.2-6.6c4.4,0.7,7.3,4.8,6.6,9.2
				l-31.8,193.1C426.2,533.5,422.1,536.4,417.8,535.7z"/>
		</g>
	</g>
	<g>
		<path class="st0" d="M504.7,188.3c17.9-6.5,38.6-3.5,54.3,9.3c4.5,3.7,9.4,8.8,14.2,14.9c20.8,26.3,40.5,69.9,24.5,89.3
			c-15.4,18.9-60,9.2-89.8-5.3l0-0.1c-8-3.8-14.8-8-19.9-12.2c-19.4-15.9-25.3-42-16.5-64.1c12.4,1.1,23.7-7.6,25.8-20
			c0.5-3,0.4-5.9-0.1-8.6C499.6,190.3,502.1,189.2,504.7,188.3L504.7,188.3z"/>
	</g>
	<g>
		<path class="st0" d="M559,197.6c-15.7-12.9-36.4-15.8-54.3-9.3c17.4-7.1,30.8-22.8,34-42.7c1.4-8.8,1.3-20.8-0.4-33.4
			c32.9-4.2,78.2,0.9,86.8,23.7c8.9,23.5-23.7,58.5-51.9,76.7C568.4,206.5,563.5,201.3,559,197.6L559,197.6z"/>
	</g>
	<g>
		<path class="st0" d="M497,190.8c2.6-0.7,5.2-1.5,7.7-2.5c-2.6,0.9-5.1,2-7.5,3.3C497.1,191.3,497,191.1,497,190.8L497,190.8z"/>
	</g>
	<g>
		<path class="st0" d="M453.3,183.6c5-8,14.4-12.6,24.3-11c9.9,1.6,17.3,9,19.5,18.2c0,0.3,0.1,0.5,0.2,0.8c0.5,2.8,0.6,5.6,0.1,8.6
			c-2,12.4-13.4,21.1-25.8,20c-0.6,0-1.2-0.1-1.8-0.2c-0.6-0.1-1.2-0.2-1.8-0.4c-12.1-3-20-14.8-18-27.2c0.5-3,1.5-5.7,2.9-8.1
			C453,184.1,453.2,183.8,453.3,183.6z"/>
	</g>
	<g>
		<path class="st0" d="M448.3,350.5c-21.7-3.6-35.1-39-39.3-70.3l0-0.1c8.8-1.1,16.7-2.8,22.7-5.2c23.4-8.9,37.5-31.7,36.2-55.4
			c0.6,0.2,1.2,0.3,1.8,0.4c0.6,0.1,1.2,0.2,1.8,0.2c-8.8,22.1-2.8,48.2,16.5,64.1c5.1,4.2,11.9,8.4,19.9,12.2l0,0.1
			C494,324.8,470,354.1,448.3,350.5z"/>
	</g>
	<g>
		<path class="st0" d="M446.8,178.7c-14.2-12.3-21.8-31.5-18.5-51.4c1.4-8.8,5.4-20.1,11.1-31.5c13.9-28.3,38-57.6,59.7-54.1
			s35.2,39.1,39.3,70.3c1.7,12.6,1.9,24.6,0.4,33.4c-3.3,19.9-16.6,35.6-34,42.7c-2.5,1-5.1,1.8-7.7,2.5
			c-2.1-9.2-9.6-16.6-19.5-18.2c-9.9-1.6-19.3,3-24.3,11C451,182.1,448.8,180.5,446.8,178.7L446.8,178.7z"/>
	</g>
	<g>
		<path class="st0" d="M446.8,178.7c2.1,1.8,4.2,3.4,6.5,4.9c-0.1,0.2-0.2,0.5-0.4,0.7C451,182.3,448.9,180.4,446.8,178.7
			L446.8,178.7z"/>
	</g>
	<g>
		<path class="st0" d="M349.5,90.5c15.5-18.9,60-9.2,89.8,5.4c-5.7,11.4-9.7,22.7-11.1,31.5c-3.3,19.9,4.4,39.1,18.5,51.4
			c-14.9-11.9-35.4-15.7-54.5-8.6c-5.5,2.1-11.8,5.4-18.3,9.6C353.3,153.6,333.6,109.9,349.5,90.5L349.5,90.5z"/>
	</g>
	<g>
		<path class="st0" d="M409,280.3c-32.9,4.2-78.2-1-86.8-23.9c-8.9-23.4,23.7-58.4,51.9-76.7c6.5-4.1,12.8-7.5,18.3-9.6
			c19-7.2,39.5-3.3,54.5,8.6c2.2,1.7,4.2,3.5,6.1,5.5c-1.4,2.4-2.4,5.1-2.9,8.1c-2,12.4,5.9,24.2,18,27.2
			c1.3,23.7-12.8,46.5-36.2,55.4C425.7,277.3,417.8,279.1,409,280.3L409,280.3L409,280.3z"/>
	</g>
</g>
<g>
	<g>
		<path class="st0" d="M1402,409l3,72l-128.9-210.7L1400.7,377L1402,409z"/>
	</g>
	<g>
		<path class="st0" d="M1537.5,203.3L1406.7,521l-1.7-40l-3-72L1537.5,203.3z"/>
	</g>
	<g>
		<path class="st0" d="M1407.3,537c-4.4,0.2-8.1-3.2-8.3-7.7l-10.3-247.8c-0.2-4.4,3.2-8.1,7.7-8.3s8.1,3.2,8.3,7.7l10.3,247.8
			C1415.1,533.1,1411.7,536.8,1407.3,537z"/>
	</g>
	<g>
		<path class="st0" d="M1386.3,33.5c13.3-0.6,26.4,6.7,38.3,18.7c-11.9,3.9-24.5,10.5-36.9,18.8c-12.9-7.1-25.8-12.6-38-15.5l0-0.1
			C1360.5,42.5,1372.9,34,1386.3,33.5z"/>
	</g>
	<g>
		<path class="st0" d="M1349.7,55.4c12.2,2.9,25.2,8.3,38,15.5c-32.3,21.6-62.7,54.4-75.1,78.2c-13.1,25.1-13.3,53.6-2.9,77.8
			c-23.2-48.5-38.7-143.2-0.3-167.6C1320.3,52.4,1334.3,51.7,1349.7,55.4L1349.7,55.4z"/>
	</g>
	<g>
		<path class="st0" d="M1396.7,281.2c-15.4,0.7-31.2-2.5-45.8-10.2c-19.1-10-33.1-25.8-41.1-44.2c-10.4-24.1-10.2-52.7,2.9-77.8
			c12.4-23.7,42.8-56.6,75.1-78.2c12.3-8.3,24.9-14.9,36.8-18.8c15.1-5,29.2-5.5,40.5,0.5c44.2,23.1,30.8,136,7.7,180.2
			C1457.4,262.4,1427.8,279.9,1396.7,281.2L1396.7,281.2z"/>
	</g>
</g>
</svg>
