<?xml version="1.0" encoding="utf-8"?>
<!-- Generator: Adobe Illustrator 22.1.0, SVG Export Plug-In . SVG Version: 6.00 Build 0)  -->
<svg version="1.1" id="Layer_1" xmlns="http://www.w3.org/2000/svg" xmlns:xlink="http://www.w3.org/1999/xlink" x="0px" y="0px"
	 viewBox="0 0 390 178.2" style="enable-background:new 0 0 390 178.2;" xml:space="preserve">
<style type="text/css">
	.st0{fill:#D3E4D6;}
</style>
<path class="st0" d="M-56.6,178.2h472.8c2.9,0,5.3-2.4,5.2-5.3c-0.4-20.8-0.3-97.2,23.4-126.1c0.7-0.8-0.2-2-1.1-1.6
	c-11.3,4-44.9,17.6-53.2,41.8c-0.3,1-1.7,0.9-2-0.1l-13-48.6c-0.2-0.9-1.5-1-1.9-0.2L358.9,68c-0.3,0.7-1.3,0.8-1.8,0.1l-27.8-39.7
	c-0.5-0.7-1.7-0.5-1.9,0.4l-12.9,64.8c-0.2,1.1-1.8,1.1-2,0L289.2,0.8c-0.3-1-1.7-1.1-2,0l-19.6,70.5c-0.3,0.9-1.5,1-1.9,0.1
	l-22.6-50.7c-0.4-0.9-1.7-0.8-1.9,0.1L223,81.5c-0.3,1-1.8,1-2-0.1l-10.7-44.6c-0.2-1-1.6-1.1-2-0.2l-29.6,70.6
	c-0.4,0.8-1.6,0.8-1.9,0l-39.6-93.6c-0.5-1.1-2.1-0.7-2,0.5c1.5,18.1,3.6,67.7-14.8,90.4c-0.5,0.6-1.5,0.5-1.8-0.3L99.1,50.4
	c-0.3-0.9-1.7-0.9-2,0.1l-16.2,56.8c-0.3,0.9-1.4,1-1.9,0.2C73.2,97.2,49,50.8,61,9.2c0,0-31.6,41.5-32.7,72.1c0,1.1-1.6,1.4-2,0.3
	L13.3,46.9c-0.4-0.9-1.7-0.9-2,0.1l-15.9,56.8c-0.3,1.1-1.9,1-2-0.2c-1.7-15.9-10.9-60.6-58.7-92.8c-0.8-0.5-1.9,0.2-1.6,1.2
	c4.6,14.4,23.8,81.9,5.3,159.8C-62.5,175.1-60,178.2-56.6,178.2z"/>
</svg>
