<?xml version="1.0" encoding="utf-8"?>
<!-- Generator: Adobe Illustrator 22.1.0, SVG Export Plug-In . SVG Version: 6.00 Build 0)  -->
<svg version="1.1" id="Layer_1" focusable="false" xmlns="http://www.w3.org/2000/svg" xmlns:xlink="http://www.w3.org/1999/xlink"
	 x="0px" y="0px" viewBox="0 0 640 512" style="enable-background:new 0 0 640 512;" xml:space="preserve">
<style type="text/css">
	.st0{opacity:0.6;fill:#804251;enable-background:new    ;}
	.st1{fill:#804251;}
</style>
<g>
	<path class="st0" d="M0,384h64c17.7,0,32-14.3,32-32V128.2H0V384z M48,320.1c8.8,0,16,7.2,16,16s-7.2,16-16,16s-16-7.2-16-16
		S39.2,320.1,48,320.1z M457.3,73.4c-6-6-14.1-9.4-22.6-9.4h-85.9c-8,0-15.7,3-21.6,8.4l-98.3,90c-0.1,0.1-0.2,0.3-0.3,0.4
		c-16,14.9-16.9,39.9-2.1,56c12.7,13.9,39.4,17.6,56.1,2.7c0.1-0.1,0.3-0.1,0.4-0.2l79.9-73.2c6.6-5.8,16.8-5.2,22.6,1.5
		c5.6,6.4,5.2,16.2-1,22.1l-26.1,23.9L504,313.8c2.8,2.4,5.5,4.9,7.9,7.7V128L457.3,73.4z"/>
	<path class="st1" d="M544,128.2v223.9c0,17.7,14.3,32,32,32h64V128.2H544z M592,352.1c-8.8,0-16-7.2-16-16s7.2-16,16-16
		s16,7.2,16,16S600.8,352.1,592,352.1z M483.9,338.7L334.6,217.5l-30,27.5c-29.9,26.2-75.4,23.1-101.6-6.8
		c-25.3-28.9-23.4-72.7,4.3-99.3L289.1,64h-83.8c-8.5,0-16.6,3.4-22.6,9.4L128,128v223.9h18.3l90.5,81.9c27.4,22.3,67.7,18.1,90-9.3
		l0.2-0.2l17.9,15.5c15.9,13,39.3,10.5,52.3-5.4c0,0,0,0,0,0l31.4-38.6l5.4,4.4c13.7,11.1,33.9,9,45-4.7l9.5-11.7
		C499.7,370.1,497.6,349.9,483.9,338.7L483.9,338.7z"/>
</g>
</svg>
