<?xml version="1.0" encoding="utf-8"?>
<!-- Generator: Adobe Illustrator 22.1.0, SVG Export Plug-In . SVG Version: 6.00 Build 0)  -->
<svg version="1.1" id="Layer_1" xmlns="http://www.w3.org/2000/svg" xmlns:xlink="http://www.w3.org/1999/xlink" x="0px" y="0px"
	 viewBox="0 0 224 191.9" style="enable-background:new 0 0 224 191.9;" xml:space="preserve">
<style type="text/css">
	.st0{fill:#814352;}
</style>
<path class="st0" d="M21.7,13.1c24-20,59.6-16.4,81.6,5.8l8.6,8.7l8.6-8.7c22-22.2,57.7-25.8,81.6-5.8c25.7,21.4,29.3,59.6,7.9,85.3
	c-1.1,1.3-2.2,2.6-3.4,3.8l-84.7,85.6c-5.4,5.5-14.2,5.5-19.7,0.1c0,0-0.1-0.1-0.1-0.1l-84.7-85.6C-6.1,78.3-5.8,39.9,18.1,16.4
	C19.3,15.3,20.5,14.2,21.7,13.1L21.7,13.1z"/>
</svg>
