<?xml version="1.0" encoding="utf-8"?>
<!-- Generator: Adobe Illustrator 22.1.0, SVG Export Plug-In . SVG Version: 6.00 Build 0)  -->
<svg version="1.1" id="Layer_1" focusable="false" xmlns="http://www.w3.org/2000/svg" xmlns:xlink="http://www.w3.org/1999/xlink"
	 x="0px" y="0px" viewBox="0 0 576 512" style="enable-background:new 0 0 576 512;" xml:space="preserve">
<style type="text/css">
	.st0{opacity:0.6;fill:#804251;enable-background:new    ;}
	.st1{fill:#804251;}
</style>
<g>
	<path class="st0" d="M546.2,9.7c-5.6-12.5-21.6-13-28.3-1.2C486.9,62.4,431.4,96,368,96h-80.3C181.9,96,96,181.8,96,287.7
		c0,15.8,1.9,31.5,5.8,46.9c-5.4,5.4-10.8,11-16,16.7C29.2,413.4,3,475.1,1.9,477.8c-5.3,12.5,0.6,27,13.1,32.3
		c12.4,5.3,26.7-0.5,32-12.9c0-0.1,0.1-0.1,0.1-0.2c0.2-0.6,24.3-57,75.1-112.5c34.4,58.9,97.4,95.1,165.6,95.1h0.2v0.5
		c6.8,0,13.7-0.4,20.5-1.1C465.5,467.5,576,326.7,576,154.3C576,104.1,565.2,52.1,546.2,9.7z M430.6,294.4L345.9,380
		c-5.4,5.5-14.2,5.5-19.7,0.1c0,0-0.1-0.1-0.1-0.1l-84.7-85.6c-23.5-23.9-23.2-62.3,0.6-85.8c1.2-1.2,2.4-2.3,3.7-3.3
		c24-20,59.6-16.4,81.6,5.8l8.6,8.7l8.6-8.7c22-22.2,57.7-25.8,81.6-5.8c25.8,21.4,29.3,59.6,7.9,85.3
		C432.9,291.9,431.8,293.2,430.6,294.4L430.6,294.4z"/>
	<path class="st1" d="M245.6,205.3c24-20,59.6-16.4,81.6,5.8l8.6,8.7l8.6-8.7c22-22.2,57.7-25.8,81.6-5.8
		c25.7,21.4,29.3,59.6,7.9,85.3c-1.1,1.3-2.2,2.6-3.4,3.8L345.9,380c-5.4,5.5-14.2,5.5-19.7,0.1c0,0-0.1-0.1-0.1-0.1l-84.7-85.6
		c-23.5-23.9-23.2-62.3,0.7-85.8C243.2,207.5,244.4,206.4,245.6,205.3L245.6,205.3z"/>
</g>
</svg>
