<?xml version="1.0" encoding="utf-8"?>
<!-- Generator: Adobe Illustrator 22.1.0, SVG Export Plug-In . SVG Version: 6.00 Build 0)  -->
<svg version="1.1" id="Layer_1" xmlns="http://www.w3.org/2000/svg" xmlns:xlink="http://www.w3.org/1999/xlink" x="0px" y="0px"
	 viewBox="0 0 512 512" style="enable-background:new 0 0 512 512;" xml:space="preserve">
<style type="text/css">
	.st0{fill:#87C091;}
	.st1{fill:#74AD7C;}
	.st2{fill:#3D7547;}
	.st3{fill:#FFFFFF;}
	.st4{fill:#CDE5D1;}
	.st5{fill:#2C5433;}
	.st6{fill:#CC9999;}
</style>
<path class="st0" d="M406.1,114.8C388.4,17.7,300.1,0,256,0S123.6,17.7,105.9,114.8S61.8,335.4,61.8,335.4
	C150.1,406,229.5,406,256,406s105.9,0,194.2-70.6C450.2,335.4,423.7,211.9,406.1,114.8z"/>
<path class="st1" d="M282.2,1.9C272.6,0.6,263.6,0,256,0c-44.1,0-132.4,17.7-150.1,114.8S61.8,335.4,61.8,335.4
	c58.1,46.5,112.2,62.3,150.1,67.7V176.6C211.9,176.6,219.4,49.9,282.2,1.9z"/>
<path class="st2" d="M300.1,326.6v30.8c0,7.9,5.2,14.8,12.8,17l73.2,20.9c22.9,6.6,40.1,25.7,44,49.3l7.8,46.8
	c1.8,10.8-6.5,20.6-17.4,20.6h-329c-10.9,0-19.2-9.8-17.4-20.6l7.8-46.8c3.9-23.5,21-42.7,44-49.3l73.2-20.9
	c7.6-2.2,12.8-9.1,12.8-17v-30.8H300.1L300.1,326.6z"/>
<path class="st3" d="M256,476.7c54.8,0,101.1-35.7,117.4-85L313,374.4c-7.6-2.2-12.8-9.1-12.8-17v-30.8h-88.3v30.8
	c0,7.9-5.2,14.8-12.8,17l-60.4,17.3C154.9,441,201.2,476.7,256,476.7z"/>
<path class="st4" d="M300.1,335.4l-24.3-8.8h-64v30.8c0,7.9-5.2,14.8-12.8,17l-18.7,5.3l0,0C254.8,415.3,300.1,335.4,300.1,335.4z"
	/>
<g>
	<path class="st5" d="M100.7,409.7c-9.8,9.1-16.6,21.2-18.9,34.9L74,491.4c-1.8,10.8,6.5,20.6,17.4,20.6h49.8v-30.3
		c0-9-2.8-17.8-7.9-25.2L100.7,409.7z"/>
	<path class="st5" d="M411.3,409.7c9.8,9.1,16.6,21.2,18.9,34.9l7.8,46.8c1.8,10.8-6.5,20.6-17.4,20.6h-49.8v-30.3
		c0-9,2.8-17.8,7.9-25.2L411.3,409.7z"/>
</g>
<path class="st3" d="M388.4,203v-79.4H123.6V203c-9.8,0-17.7,7.9-17.7,17.7v17.7c0,9.8,7.9,17.7,17.7,17.7c0.5,0,0.9-0.1,1.4-0.1
	c5.3,29.7,25.4,55,54.1,66.5l44.1,17.7c21,8.4,44.5,8.4,65.6,0l44.1-17.7c28.6-11.5,48.8-36.8,54.1-66.5c0.5,0,0.9,0.1,1.4,0.1
	c9.8,0,17.7-7.9,17.7-17.7v-17.7C406.1,210.9,398.2,203,388.4,203z"/>
<path class="st4" d="M123.6,123.6V203c-9.8,0-17.7,7.9-17.7,17.7v17.7c0,9.8,7.9,17.7,17.7,17.7c0.5,0,0.9-0.1,1.4-0.1
	c5.3,29.7,25.4,55,54.1,66.5l44.1,17.7c10,4,20.5,6,31,6.2c-29.9-13.3-52.1-34.8-66.5-52.3c-12.9-15.8-20-35.5-20-55.9v-29.7
	c0-8.9,6.7-16.5,15.5-17.5l74.4-8.9l5,21c0,0,67.9-11,98.5-23.7l18.5-37.8v-17.7L123.6,123.6L123.6,123.6z"/>
<path class="st0" d="M256,300.1c-15.7,0-30.4-3.9-40.3-10.6c-4-2.7-5.1-8.2-2.3-12.3c2.7-4,8.2-5.1,12.3-2.3
	c6.9,4.7,18.3,7.5,30.3,7.5s23.4-2.8,30.3-7.5c4-2.7,9.5-1.7,12.3,2.3c2.7,4,1.7,9.5-2.3,12.3C286.4,296.3,271.7,300.1,256,300.1z"
	/>
<g>
	<path class="st5" d="M189.8,238.3L189.8,238.3c-7.3,0-13.2-5.9-13.2-13.2v-8.8c0-7.3,5.9-13.2,13.2-13.2l0,0
		c7.3,0,13.2,5.9,13.2,13.2v8.8C203,232.4,197.1,238.3,189.8,238.3z"/>
	<path class="st5" d="M322.2,238.3L322.2,238.3c-7.3,0-13.2-5.9-13.2-13.2v-8.8c0-7.3,5.9-13.2,13.2-13.2l0,0
		c7.3,0,13.2,5.9,13.2,13.2v8.8C335.4,232.4,329.5,238.3,322.2,238.3z"/>
</g>
<path class="st0" d="M123.6,203c0-8.8,0-35.3,26.5-70.6l8.8,44.1l88.3-8.8l17.7-26.5l8.8,44.1c0,0,72.3-13.2,79.4-17.7l17.7-26.5
	c0,0,17.7,26.5,17.7,61.8h17.7l1.6-62.5c0.4-14.9-11.7-27.2-26.6-27.2l-248.8,1.3c-14.6,0.1-26.3,11.9-26.3,26.5v62H123.6z"/>
<g>
	<path class="st6" d="M358.2,94.5l-66.3,2.8c-4.9,0.2-8-5.2-6.1-10.9l14.4-44.6c1.8-5.6,7.5-8.2,11.4-5.2l52.1,41.1L358.2,94.5z"/>
	<path class="st6" d="M371.8,98.9l52.1,41.1c3.8,3,9.5,0.4,11.4-5.2l14.4-44.6c1.8-5.6-1.3-11.1-6.1-10.9l-66.3,2.8L371.8,98.9z"/>
</g>
<path class="st6" d="M370.7,107.8l-16.8-5.4c-4.6-1.5-7.2-6.5-5.7-11.1l5.4-16.8c1.5-4.6,6.5-7.2,11.1-5.7l16.8,5.4
	c4.6,1.5,7.2,6.5,5.7,11.1l-5.4,16.8C380.3,106.8,375.3,109.3,370.7,107.8z"/>
<path class="st5" d="M125.8,395.3c-1.4,0.4-2.7,1-4.1,1.5l0.1,0.4c19.1,58.1,73,97.2,134.1,97.2s115-39,134.1-97.2l0.1-0.4
	c-1.4-0.5-2.7-1.1-4.1-1.5l-12.8-3.7c-16.2,49.3-62.6,85-117.4,85s-101.1-35.7-117.4-85L125.8,395.3z"/>
<path class="st1" d="M221.8,113.2l-89.6,0.5c-14.6,0.1-26.3,12-26.3,26.8V203h17.7c0-8.9,0-35.7,26.5-71.4l8.8,44.6l53.5-5.4
	C213.3,161.1,215.7,139,221.8,113.2z"/>
</svg>
