<?xml version="1.0" encoding="utf-8"?>
<!-- Generator: Adobe Illustrator 22.1.0, SVG Export Plug-In . SVG Version: 6.00 Build 0)  -->
<svg version="1.1" id="Layer_1" focusable="false" xmlns="http://www.w3.org/2000/svg" xmlns:xlink="http://www.w3.org/1999/xlink"
	 x="0px" y="0px" viewBox="0 0 448 512" style="enable-background:new 0 0 448 512;" xml:space="preserve">
<style type="text/css">
	.st0{fill:#167568;}
</style>
<path class="st0" d="M295.5,115.7l-19.6,19.6c-4.8,4.8-4.7,12.5,0.2,17.1l80.7,77.5H12c-6.6,0-12,5.4-12,12v28c0,6.6,5.4,12,12,12
	h344.8l-80.7,77.5c-4.8,4.7-4.9,12.4-0.2,17.1l19.6,19.6c4.7,4.7,12.3,4.7,17,0l131.8-131.8c4.7-4.7,4.7-12.3,0-17L312.5,115.7
	C307.8,111,300.2,111,295.5,115.7L295.5,115.7z"/>
</svg>
