<?xml version="1.0" encoding="utf-8"?>
<!-- Generator: Adobe Illustrator 22.1.0, SVG Export Plug-In . SVG Version: 6.00 Build 0)  -->
<svg version="1.1" id="Layer_1" focusable="false" xmlns="http://www.w3.org/2000/svg" xmlns:xlink="http://www.w3.org/1999/xlink"
	 x="0px" y="0px" viewBox="0 0 512 512" style="enable-background:new 0 0 512 512;" xml:space="preserve">
<style type="text/css">
	.st0{opacity:0.6;fill:#804251;enable-background:new    ;}
	.st1{fill:#804251;}
</style>
<g>
	<path class="st0" d="M448,424.3c0,34.9-26.8,55.8-71.7,55.8c-48.4,0-80.8-25.1-120.3-25.1c-39.2,0-71.4,25.1-120.3,25.1
		C90.8,480,64,459.2,64,424.3C64,346.8,176.6,224,256,224S448,346.8,448,424.3z"/>
	<path class="st1" d="M474.8,161.3c-29.1-7-61.1,15.5-71.6,50.1s4.8,68.4,33.9,75.3s61.1-15.5,71.6-50.1
		C519.1,202,504,168.2,474.8,161.3L474.8,161.3z M37.2,161.3C8.1,168.2-7.1,202,3.3,236.6s42.4,57.1,71.6,50.1s44.3-40.7,33.9-75.3
		S66.3,154.3,37.2,161.3L37.2,161.3z M150.6,33.4c-30.9,8.1-46.4,49.9-34.6,93.4s46.5,72,77.5,63.9s46.4-49.9,34.6-93.4
		S181.5,25.3,150.6,33.4z M361.4,33.4c-30.9-8.1-65.6,20.5-77.4,63.9s3.6,85.2,34.6,93.4s65.6-20.4,77.5-63.9S392.4,41.5,361.4,33.4
		L361.4,33.4z"/>
</g>
</svg>
