<?xml version="1.0" encoding="utf-8"?>
<!-- Generator: Adobe Illustrator 22.1.0, SVG Export Plug-In . SVG Version: 6.00 Build 0)  -->
<svg version="1.1" id="Capa_1" xmlns="http://www.w3.org/2000/svg" xmlns:xlink="http://www.w3.org/1999/xlink" x="0px" y="0px"
	 viewBox="0 0 496 496" style="enable-background:new 0 0 496 496;" xml:space="preserve">
<style type="text/css">
	.st0{fill:#CDE5D1;}
	.st1{fill:#87C091;}
	.st2{fill:#74AD7C;}
	.st3{fill:#ABD3B2;}
	.st4{fill:#2C5433;}
	.st5{fill:#3D7547;}
</style>
<polygon class="st0" points="474.6,396 453.4,364 416,308 80,308 58.6,340 0,428 70.8,428 425.2,428 496,428 "/>
<path class="st1" d="M231.2,348c-9.6-9.8-22.4-23.5-35.8-40c-32.2-39.9-67.4-96.3-67.4-152c0-66.2,53.7-120,120-120
	s120,53.8,120,120c0,55.7-35.2,112.1-67.4,152c-13.4,16.5-26.2,30.2-35.8,40h-0.1c-10.1,10.2-16.7,16-16.7,16S241.4,358.2,231.2,348
	z"/>
<path class="st2" d="M248,36c-5.4,0-10.8,0.5-16,1.2c58.7,7.8,104,58,104,118.8c0,55.7-35.2,112.1-67.4,152
	c-13.4,16.5-26.2,30.2-35.8,40h-0.1c-0.3,0.3-0.5,0.5-0.8,0.8c9.7,9.7,16,15.2,16,15.2s6.6-5.8,16.7-16h0.1
	c9.6-9.8,22.4-23.5,35.8-40c32.2-39.9,67.4-96.3,67.4-152C368,89.8,314.3,36,248,36z"/>
<polygon class="st3" points="496,428 496,460 0,460 0,428 70.8,428 425.2,428 "/>
<path class="st4" d="M208,220c-4.4,0-8-3.6-8-8v-96c0-4.4,3.6-8,8-8s8,3.6,8,8v96C216,216.4,212.4,220,208,220z"/>
<path class="st5" d="M288,136.6c-2.7,0-4.9,1.4-6.4,3.4L248,116l-33.6,24c-1.5-2-3.7-3.4-6.4-3.4c-4.4,0-8,3.6-8,8V212
	c0,4.4,3.6,8,8,8s8-3.6,8-8h32h32c0,4.4,3.6,8,8,8s8-3.6,8-8v-67.4C296,140.2,292.4,136.6,288,136.6z"/>
<g>
	<path class="st4" d="M192,164c-2.5,0-5-1.2-6.5-3.4c-2.6-3.6-1.7-8.6,1.9-11.2l56-40c3.6-2.6,8.6-1.7,11.2,1.9
		c2.6,3.6,1.7,8.6-1.9,11.2l-56,40C195.2,163.5,193.6,164,192,164z"/>
	<path class="st4" d="M304,164c-1.6,0-3.2-0.5-4.6-1.5l-56-40c-3.6-2.6-4.4-7.6-1.9-11.2c2.6-3.6,7.6-4.4,11.2-1.9l56,40
		c3.6,2.6,4.4,7.6,1.9,11.2C308.9,162.8,306.5,164,304,164z"/>
</g>
<path class="st1" d="M248,220c-4.4,0-8-3.6-8-8v-24c0-4.4,3.6-8,8-8s8,3.6,8,8v24C256,216.4,252.4,220,248,220z"/>
<path class="st5" d="M296,220h-96c-4.4,0-8-3.6-8-8s3.6-8,8-8h96c4.4,0,8,3.6,8,8S300.4,220,296,220z"/>
</svg>
