<?xml version="1.0" encoding="utf-8"?>
<!-- Generator: Adobe Illustrator 22.1.0, SVG Export Plug-In . SVG Version: 6.00 Build 0)  -->
<svg version="1.1" id="Layer_1" xmlns="http://www.w3.org/2000/svg" xmlns:xlink="http://www.w3.org/1999/xlink" x="0px" y="0px"
	 viewBox="0 0 511.8 511.8" style="enable-background:new 0 0 511.8 511.8;" xml:space="preserve">
<style type="text/css">
	.st0{fill:#87C091;}
	.st1{fill:#4F965C;}
</style>
<g>
	<path class="st0" d="M418.2,194.2c0,0-29-166.4-120.6-179.2c-56.1-7.8-109,19.2-116.9,75.3l0,0c-7.7,56.1,30.2,81.7,90.2,76
		C363,157.6,418.2,194.2,418.2,194.2z"/>
	<path class="st0" d="M270,475.6c0,0,158.6,58.1,215.5-14.8c34.8-44.7,37.8-104-6.8-138.8l0,0c-44.8-34.8-85.9-14.7-110.9,40.1
		C329.3,446.1,270,475.6,270,475.6z"/>
	<path class="st0" d="M100.8,204.1c0,0-129.6,108.3-94.9,194c21.3,52.5,71.1,84.8,123.7,63.5l0,0c52.5-21.4,55.7-67,20.7-116.1
		C96.7,270.2,100.8,204.1,100.8,204.1z"/>
</g>
<g>
	<path class="st1" d="M304.4,89.9L304.4,89.9C301.7,88.3,237.8,51.1,177,75c-38.5,15.1-66.4,50.9-82.9,106.2c0,0,0,0,0,0s0,0,0,0
		l0,0c-1,3.3-0.4,6.9,2,9.8c3.7,4.6,10.4,5.2,15,1.5c1.7-1.4,2.9-3.2,3.5-5.2l0,0c14.5-48.8,38.1-79.9,70.1-92.5
		c51.1-20.1,108.3,13,108.9,13.3l0,0c3.7,2.2,8.6,2,12.2-0.9c4.6-3.7,5.2-10.4,1.5-15C306.4,91.3,305.4,90.5,304.4,89.9z"/>
	<path class="st1" d="M443.3,201.5C443.3,201.5,443.2,201.5,443.3,201.5C443.2,201.4,443.2,201.4,443.3,201.5L443.3,201.5
		c-2.4-2.5-5.9-3.8-9.5-3.2c-5.8,0.9-9.8,6.4-8.8,12.2c0.4,2.2,1.4,4.1,2.8,5.6v0c35,36.9,50.1,72.9,45,107
		c-8.1,54.3-65.4,87.3-66,87.6l0,0c-3.8,2.1-6,6.5-5.3,11c0.9,5.8,6.4,9.8,12.2,8.8c1.3-0.2,2.5-0.6,3.5-1.2l0,0
		c2.7-1.5,66.8-38.3,76.6-102.9C500,285.5,483,243.4,443.3,201.5z"/>
	<path class="st1" d="M252.9,470.9c-2.1-0.8-4.3-0.9-6.3-0.4l0,0c-49.5,11.8-88.2,7-115.2-14.5c-43-34.2-42.9-100.3-42.9-101h0
		c0-4.3-2.6-8.4-6.9-10.1c-5.5-2.1-11.7,0.7-13.8,6.2c-0.5,1.2-0.7,2.5-0.7,3.7l0,0c0,3.1-0.3,77,50.8,117.8
		c21.3,17,48,25.5,79.9,25.5c16.5,0,34.4-2.3,53.6-6.9h0c0,0,0,0,0,0h0c3.3-0.8,6.2-3.2,7.5-6.6C261.2,479.1,258.4,473,252.9,470.9z
		"/>
</g>
</svg>
