<?xml version="1.0" encoding="utf-8"?>
<!-- Generator: Adobe Illustrator 22.1.0, SVG Export Plug-In . SVG Version: 6.00 Build 0)  -->
<svg version="1.1" id="Flat" xmlns="http://www.w3.org/2000/svg" xmlns:xlink="http://www.w3.org/1999/xlink" x="0px" y="0px"
	 viewBox="0 0 416 464" style="enable-background:new 0 0 416 464;" xml:space="preserve">
<style type="text/css">
	.st0{fill:#D3E4D6;}
</style>
<path class="st0" d="M272,262.8c0,40.4-37.6,73.2-84,73.2c-18.5,0.1-36.7-5.3-52-15.7c-15.3,10.4-33.5,15.8-52,15.7
	c-46.4,0-84-32.8-84-73.2c0-19.2,8.5-36.6,22.3-49.7C13.2,202.7,8.1,189.4,8,175.6c0-28.2,21.4-52.1,50.7-60C67.9,85.9,99,64,136,64
	s68.1,21.9,77.3,51.6c29.4,7.9,50.7,31.8,50.7,60c-0.1,13.8-5.2,27.1-14.3,37.5C263.5,226.2,272,243.6,272,262.8L272,262.8z"/>
<path class="st0" d="M184,240l-32,48v176h-32V288l-32-48l24-16l24,38.4l24-38.4L184,240z"/>
<path class="st0" d="M416,198.8c0,40.4-37.6,73.2-84,73.2c-18.5,0.1-36.7-5.3-52-15.7c-15.3,10.4-33.5,15.8-52,15.7
	c-46.4,0-84-32.8-84-73.2c0-19.2,8.4-36.6,22.3-49.7c-9.1-10.4-14.2-23.7-14.3-37.5c0-28.2,21.4-52.1,50.7-60
	C211.9,21.9,243,0,280,0s68.1,21.9,77.3,51.6c29.4,7.9,50.7,31.8,50.7,60c-0.1,13.8-5.2,27.1-14.3,37.5
	C407.5,162.2,416,179.6,416,198.8z"/>
<path class="st0" d="M328,176l-32,48v240h-32V224l-32-48l24-16l24,38.4l24-38.4L328,176z"/>
</svg>
