<?xml version="1.0" encoding="utf-8"?>
<!-- Generator: Adobe Illustrator 22.1.0, SVG Export Plug-In . SVG Version: 6.00 Build 0)  -->
<svg version="1.1" id="b037a0bb-7117-46ab-9d3c-e50125615789"
	 xmlns="http://www.w3.org/2000/svg" xmlns:xlink="http://www.w3.org/1999/xlink" x="0px" y="0px" viewBox="0 0 226.5 546.9"
	 style="enable-background:new 0 0 226.5 546.9;" xml:space="preserve">
<style type="text/css">
	.st0{fill:#E6E6E6;}
	.st1{fill:#FFB8B8;}
	.st2{fill:#2F2E41;}
	.st3{fill:#B38E97;}
</style>
<rect x="115" y="152.7" class="st0" width="26.9" height="26.9"/>
<rect x="115.8" y="214" class="st0" width="26.9" height="26.9"/>
<rect x="116.5" y="275.4" class="st0" width="26.9" height="26.9"/>
<rect x="116.5" y="275.4" class="st0" width="26.9" height="26.9"/>
<path class="st1" d="M199.2,517.6l-7.4,0.9c-5.8,3.5-12.6,4.8-20.2,4.6c-2.1-0.1-4.1-1.3-5.1-3.1l0,0c-1.6-2.9-0.5-6.6,2.4-8.1
	c0.5-0.3,1-0.4,1.5-0.6l5.6-1.3l13.5-13.2l8.1-14.7l11.8,1.4l2.5,18.7l0,0C212.6,509.8,207,516.7,199.2,517.6z"/>
<path class="st1" d="M84.5,508.1l-7.2,1.7c-5.4,4.1-12,6.2-19.6,6.8c-2.1,0.2-4.2-0.8-5.5-2.5l0,0c-1.9-2.7-1.2-6.5,1.5-8.4
	c0.4-0.3,0.9-0.6,1.4-0.7l5.4-1.9l11.9-14.7l6.4-15.6h11.9l4.6,18.3l0,0C96.9,498.8,92.1,506.3,84.5,508.1z"/>
<path class="st2" d="M78.6,473.9l13.5,2.1l21.2-107.2l36.8-62.7l44.5,182.3l16.6,3.1c-1.9-102.7,7.2-231.9-13.5-247.6l-90.1,10.4
	L68.2,359.9L78.6,473.9z"/>
<circle class="st1" cx="143.9" cy="53.3" r="31.1"/>
<polygon class="st1" points="187.4,101 150.1,107.2 140.8,74.1 167.7,65.8 "/>
<path class="st3" d="M202.9,248.1l-99.4,9.3c8-27.7,15.3-55.3,9.3-82.9c-7.6-24.6-0.3-39.2,19.7-50.8l13.5-30l36.3-4.1l0,0
	c9.6,15.4,13.5,33.7,11.1,51.8C188.1,180.5,189.5,216.9,202.9,248.1z"/>
<path class="st2" d="M143.2,16.6c-10.4,2.4-22.2,5.7-22.8,8.8c-10.7,2.7-18.7,9.1-20.4,18.9c-0.5,3.2,1.7,6.2,4.9,6.7
	c0.3,0.1,0.7,0.1,1,0.1c5.8-0.1,14.5-0.6,20.3-3C142.8,59,145.6,87,138.3,106l11.5-1.1l11.9-34.8l3,33.4l26.2-3.5l-3.4-42.6
	c-1-10-4.5-19.7-10-28.1c-0.6-0.8-1.2-1.7-1.9-2.4C167.6,17.8,155.1,13.8,143.2,16.6z"/>
<path class="st1" d="M77.4,528.3c-0.2,2,1.2,3.8,3.2,4c0.1,0,0.2,0,0.4,0l11.7,0.1c1.3-0.1,2.3-1.2,2.3-2.5l0,0c0-1-0.6-1.9-1.6-2.3
	l-3.4-1.4l-5-7h-4C78.9,521.9,77.7,525,77.4,528.3L77.4,528.3L77.4,528.3z"/>
<path class="st1" d="M49.5,528.3c0.2,2-1.2,3.8-3.2,4c-0.1,0-0.2,0-0.4,0l-11.7,0.1c-1.3-0.1-2.3-1.2-2.3-2.5l0,0
	c0-1,0.6-1.9,1.6-2.3l3.4-1.4l5-7h4C47.9,521.9,49.1,525,49.5,528.3L49.5,528.3L49.5,528.3z"/>
<polygon class="st2" points="40.9,519.3 46.9,519.3 67.9,428.3 78.9,520.3 85.9,520.3 95.4,401.8 46.9,401.3 "/>
<path class="st1" d="M13.9,352.3h8v-19l1.8-3.6c1.3-2.6,0.2-5.7-2.3-7c-0.5-0.2-1-0.4-1.5-0.5l0,0c-2.8-0.4-5.5,1.5-5.9,4.3
	c0,0.3-0.1,0.5-0.1,0.8V352.3z"/>
<circle class="st1" cx="61.4" cy="286.8" r="18.5"/>
<rect x="53.9" y="296.3" class="st1" width="19" height="22"/>
<path class="st3" d="M44.9,404.3c16.8,10.4,34.6,9.4,53,1l-4-93l-21-1l-22,3l-11,9L44.9,404.3z"/>
<polygon class="st3" points="24.9,371.3 46.9,354.3 39.9,323.3 26.9,347.3 22.9,343.3 10.9,352.3 "/>
<path class="st1" d="M122.6,313.9l-7,3.9l-9.2-16.6l-3.4-2.3c-2.4-1.6-3-4.8-1.3-7.2c0.3-0.4,0.7-0.8,1.1-1.2l0,0
	c2.3-1.8,5.5-1.3,7.3,0.9c0.2,0.2,0.3,0.4,0.4,0.7l2.9,5.2L122.6,313.9z"/>
<polygon class="st3" points="83.4,341.8 110,327.7 123.9,320.3 125.9,308.3 116.9,299.3 105.9,306.3 106.9,314.3 93.9,312.3 "/>
<circle class="st2" cx="65.4" cy="279.8" r="22"/>
<circle class="st2" cx="77.4" cy="254.8" r="10"/>
<path class="st2" d="M76.9,263.2c4.9,2.6,10.9,0.7,13.5-4.2c1.7-3.3,1.5-7.3-0.7-10.3c4.4,3.3,5.3,9.6,2,14s-9.6,5.3-14,2
	c-0.9-0.6-1.6-1.4-2.2-2.3C76,262.6,76.4,262.9,76.9,263.2z"/>
<path class="st1" d="M138.7,279.2l0.7,24c0.2,6.9-5,12.7-11.8,13.4l0,0c-7.2,0.7-13.6-4.5-14.4-11.7c-0.2-1.6,0-3.2,0.4-4.7l5.4-20
	l15.5-84.9l-1-49.7l33.1-1l-6.2,55.9L138.7,279.2z"/>
<path class="st3" d="M168.7,149.7c-12-4.6-25.3-4.6-37.3,0l2.1-41.4c0-9.2,7.4-16.6,16.6-16.6l0,0c9.2,0,16.6,7.4,16.6,16.6
	L168.7,149.7z"/>
</svg>
